<?xml version="1.0" standalone="no"?>
<!DOCTYPE svg PUBLIC "-//W3C//DTD SVG 20010904//EN"
 "http://www.w3.org/TR/2001/REC-SVG-20010904/DTD/svg10.dtd">
<svg version="1.0" xmlns="http://www.w3.org/2000/svg"
 width="1500.000000pt" height="933.000000pt" viewBox="0 0 1500.000000 933.000000"
 preserveAspectRatio="xMidYMid meet">

<g transform="translate(0.000000,933.000000) scale(0.100000,-0.100000)"
fill="#000000" stroke="none">
<path d="M8114 9081 c-26 -5 -56 -20 -80 -41 -49 -43 -94 -99 -94 -117 0 -15
-55 -73 -70 -73 -18 0 -32 -42 -34 -109 -2 -43 -12 -90 -29 -132 -33 -83 -132
-427 -156 -544 -6 -27 -17 -81 -26 -120 -9 -38 -23 -98 -30 -133 -8 -35 -32
-117 -55 -182 -22 -65 -40 -134 -40 -153 0 -19 -3 -55 -6 -81 -6 -43 -9 -47
-28 -41 -121 37 -168 45 -206 35 -114 -31 -174 -158 -150 -321 6 -41 22 -113
36 -161 l24 -88 -65 -87 c-35 -49 -79 -108 -97 -132 -27 -36 -90 -134 -134
-207 -9 -16 -15 -17 -51 -6 -55 16 -136 15 -180 -3 -48 -20 -80 -59 -98 -118
-18 -62 -6 -95 60 -166 50 -54 50 -59 3 -100 -16 -13 -36 -37 -44 -53 -9 -16
-46 -60 -83 -96 -37 -37 -72 -81 -78 -98 l-11 -31 79 -33 c44 -18 82 -37 86
-43 4 -7 0 -8 -13 -3 -10 4 -24 9 -30 10 -7 1 -18 7 -25 13 -8 6 -43 21 -79
34 -36 12 -74 28 -85 35 -36 22 -184 57 -212 49 -40 -10 -77 -39 -99 -80 -19
-36 -19 -37 1 -52 20 -15 20 -15 -2 -10 -25 6 -24 2 26 -101 17 -34 31 -64 31
-67 0 -3 -45 -35 -101 -71 -112 -74 -193 -151 -305 -290 -71 -89 -89 -104
-120 -104 -8 0 -44 -19 -79 -42 -35 -24 -83 -54 -106 -68 -71 -42 -190 -123
-268 -183 -40 -31 -79 -57 -86 -57 -8 0 -27 -11 -43 -25 -17 -14 -33 -25 -37
-25 -4 0 -20 -11 -36 -24 -16 -14 -72 -48 -125 -78 -53 -29 -106 -59 -117 -65
-12 -7 -36 -13 -53 -13 -18 0 -38 -8 -49 -20 -34 -37 -135 -92 -223 -121 -120
-39 -170 -57 -204 -75 -33 -17 -69 -25 -150 -31 -42 -4 -58 -9 -58 -19 0 -9
-4 -12 -10 -9 -5 3 -10 -3 -10 -14 0 -16 -6 -21 -27 -21 -16 0 -73 -7 -128
-15 -55 -8 -136 -19 -180 -25 -215 -30 -262 -38 -282 -48 -12 -7 -31 -12 -42
-12 -12 0 -21 -5 -21 -10 0 -7 -7 -7 -21 1 -13 6 -38 8 -61 5 -87 -14 -138
-28 -132 -37 3 -5 -6 -4 -20 3 -20 8 -39 8 -78 0 -29 -6 -102 -18 -163 -27
-60 -8 -171 -24 -245 -35 -74 -11 -202 -27 -285 -35 -82 -9 -172 -21 -200 -26
-27 -6 -81 -13 -120 -15 -71 -5 -213 -27 -295 -45 -25 -5 -58 -12 -75 -14 -16
-2 -50 -7 -75 -11 -93 -13 -281 -71 -388 -120 -145 -67 -214 -114 -313 -214
-72 -73 -105 -116 -133 -171 -20 -40 -34 -79 -32 -85 3 -7 0 -14 -7 -17 -8 -2
-13 -34 -14 -91 -2 -78 0 -92 23 -127 24 -39 85 -77 92 -58 2 5 8 9 13 9 6 0
8 -3 6 -7 -3 -5 1 -14 9 -21 8 -7 14 -9 14 -5 0 4 7 -2 15 -14 11 -16 31 -24
65 -29 28 -4 50 -11 50 -16 0 -11 41 -47 54 -48 10 0 101 -41 161 -72 22 -11
63 -32 90 -46 28 -13 52 -27 55 -31 9 -11 136 -91 146 -91 5 0 27 -14 48 -30
22 -17 47 -30 55 -30 9 0 27 -9 40 -19 20 -15 21 -19 7 -24 -9 -4 -16 -12 -16
-18 0 -7 10 -5 26 6 22 14 28 15 35 4 9 -14 3 -21 -37 -45 -17 -10 -16 -14 14
-60 37 -57 59 -83 87 -104 19 -14 19 -14 6 3 -8 9 -11 21 -7 24 11 11 137
-130 133 -147 -3 -12 3 -15 29 -12 26 3 36 -1 49 -22 10 -14 21 -26 26 -26 5
0 42 -15 82 -34 259 -120 523 -210 551 -187 15 13 81 3 121 -17 27 -14 102
-36 165 -49 14 -2 34 -8 45 -13 11 -5 58 -14 105 -21 47 -6 102 -18 124 -25
21 -8 58 -14 82 -14 42 0 122 -17 177 -39 53 -21 289 -67 437 -86 30 -4 66
-12 80 -17 14 -6 52 -17 85 -25 65 -15 72 -17 95 -26 65 -27 188 -64 310 -93
80 -20 161 -40 180 -45 19 -5 88 -9 152 -9 102 0 123 -3 155 -22 74 -41 410
-122 583 -139 52 -5 140 -18 195 -29 253 -48 358 -59 590 -65 110 -3 218 -8
240 -10 33 -4 499 -8 628 -6 30 1 39 6 47 25 5 13 15 28 22 32 10 6 10 4 -1
-9 -23 -29 -6 -47 44 -47 25 0 45 3 45 8 0 4 42 8 92 10 89 3 438 49 543 72
28 6 106 28 175 49 69 22 177 55 240 75 211 64 353 117 380 141 8 7 70 35 138
61 67 26 130 55 140 64 10 9 23 15 30 12 6 -2 12 1 12 6 0 5 11 13 25 16 14 4
34 15 45 26 11 11 29 20 39 20 23 0 36 16 21 25 -6 4 -5 13 2 25 11 16 9 23
-10 40 -25 24 -66 85 -97 145 -11 22 -27 40 -35 40 -9 0 -18 15 -24 43 -5 23
-14 42 -20 42 -7 0 -20 18 -30 40 -10 23 -28 48 -41 56 -13 9 -29 31 -35 50
-7 20 -22 39 -38 46 -18 9 -28 23 -30 40 -2 15 -17 42 -33 59 -17 18 -39 50
-50 71 -11 21 -24 38 -29 38 -5 0 -22 19 -36 42 -34 53 -51 71 -63 64 -5 -3
-12 5 -15 19 -4 14 -21 40 -39 58 -18 17 -39 41 -47 51 -13 18 -13 19 1 14 9
-4 26 0 38 9 18 12 25 12 37 2 12 -10 20 -7 42 13 33 32 92 68 110 68 8 0 68
26 135 58 67 32 134 62 150 66 15 3 88 35 162 70 78 37 142 62 153 59 13 -3
21 2 24 14 3 10 18 25 34 33 199 101 386 209 607 347 65 41 131 81 146 91 16
9 50 30 76 45 26 16 49 26 52 23 3 -3 -8 -13 -25 -23 -17 -10 -32 -28 -35 -40
-4 -20 -2 -21 11 -11 8 7 24 12 34 10 22 -4 50 16 42 30 -3 5 -12 4 -20 -3
-22 -18 -16 3 11 36 14 17 25 24 25 18 0 -20 35 -15 55 7 18 19 17 20 -5 20
-24 0 -24 0 -4 19 14 12 30 17 52 13 23 -3 33 0 38 13 4 9 18 21 31 26 19 7
23 12 14 22 -12 16 -13 15 174 142 72 48 155 106 185 129 30 23 92 68 138 100
l83 58 37 -25 c44 -29 87 -71 206 -201 65 -70 95 -96 108 -93 13 4 18 -1 18
-17 0 -13 10 -34 23 -48 51 -56 158 -177 211 -238 57 -66 214 -293 236 -342 8
-16 18 -24 26 -21 10 4 14 -3 14 -25 0 -16 8 -40 19 -53 10 -13 24 -42 31 -64
7 -22 14 -43 16 -46 4 -8 67 11 189 56 50 19 151 52 225 75 74 22 151 47 170
55 19 7 62 21 95 30 33 10 80 23 105 31 25 7 63 15 86 18 54 6 161 25 204 36
98 26 212 49 268 55 34 3 81 13 105 22 23 9 80 21 127 28 112 17 199 35 230
48 14 6 41 12 60 14 19 2 67 16 105 32 39 16 87 34 108 41 20 6 37 16 37 21 0
5 11 9 23 9 13 0 44 13 68 29 24 16 47 27 52 24 10 -6 67 16 67 26 0 4 9 7 21
8 30 3 125 82 144 121 21 42 25 118 9 163 -6 20 -15 67 -19 105 -7 73 -57 369
-80 469 -46 207 -80 379 -110 555 -14 80 -32 183 -40 230 -8 47 -24 166 -35
265 -22 191 -39 324 -65 495 -9 58 -20 134 -24 170 -5 36 -12 76 -15 90 -4 14
-8 57 -10 95 -10 200 -33 334 -103 610 -17 67 -26 123 -43 267 -12 113 -81
400 -111 467 -12 25 -22 58 -23 72 -2 32 -59 129 -104 176 -18 19 -39 47 -47
62 -17 33 -137 141 -182 165 -18 9 -54 19 -80 22 -27 2 -70 9 -98 14 -27 5
-101 11 -163 13 -110 5 -113 4 -156 -25 -60 -39 -92 -48 -216 -58 -100 -9
-198 -32 -283 -68 -22 -9 -54 -15 -73 -15 -19 1 -35 -4 -35 -10 -1 -7 -2 -25
-3 -42 -1 -27 -6 -31 -76 -56 -127 -46 -156 -57 -267 -104 -150 -64 -392 -184
-556 -277 -75 -43 -140 -78 -143 -78 -4 0 -43 -24 -88 -54 -44 -29 -95 -60
-112 -69 -17 -9 -37 -23 -44 -32 -8 -10 -54 -44 -103 -76 -48 -33 -94 -64
-100 -69 -42 -34 -136 -100 -144 -100 -5 0 -40 -21 -77 -46 -90 -60 -285 -164
-307 -164 -10 0 -43 -9 -72 -20 -30 -11 -61 -18 -69 -15 -20 8 -113 115 -140
162 -12 21 -32 52 -44 68 -36 49 -70 124 -104 230 -18 55 -38 116 -46 135 -19
50 -60 197 -69 249 -9 53 -132 400 -180 506 -40 88 -76 162 -92 190 -56 93
-138 200 -198 258 -52 50 -189 153 -222 168 -18 8 -33 17 -33 21 0 5 -5 8 -11
8 -6 0 -34 12 -63 26 -28 14 -52 25 -53 25 -5 -1 -37 12 -93 37 -30 13 -134
50 -230 82 -96 33 -197 71 -224 85 -51 26 -118 31 -212 16z m5694 -1726 c-3
-3 -9 2 -12 12 -6 14 -5 15 5 6 7 -7 10 -15 7 -18z m-6468 1 l45 -14 -68 2
c-56 1 -64 3 -50 14 21 15 18 15 73 -2z m236 -42 c36 -20 63 -38 61 -40 -8 -8
-66 18 -71 32 -3 8 -14 14 -24 14 -11 0 -25 7 -32 15 -19 23 -4 18 66 -21z
m-371 -64 c3 -5 1 -10 -4 -10 -6 0 -11 5 -11 10 0 6 2 10 4 10 3 0 8 -4 11
-10z m6682 -452 c-3 -7 -5 -2 -5 12 0 14 2 19 5 13 2 -7 2 -19 0 -25z m-4280
-444 c-3 -3 -12 -4 -19 -1 -8 3 -5 6 6 6 11 1 17 -2 13 -5z m-2602 -34 c4 -6
-5 -10 -19 -10 -14 0 -26 5 -26 10 0 6 9 10 19 10 11 0 23 -4 26 -10z m70 -30
c3 -6 -5 -10 -19 -10 -14 0 -28 5 -31 10 -3 6 5 10 19 10 14 0 28 -4 31 -10z
m60 -34 c18 -13 18 -14 -8 -9 -15 3 -27 9 -27 14 0 13 13 11 35 -5z m65 -36
c13 -8 13 -10 -2 -10 -9 0 -20 5 -23 10 -8 13 5 13 25 0z m2047 -309 c22 -16
49 -42 60 -58 101 -144 10 -342 -158 -343 -61 0 -135 26 -159 57 -27 35 -18
40 19 13 17 -12 38 -20 47 -18 13 2 12 8 -8 33 l-23 30 30 -19 c17 -11 39 -25
50 -30 12 -6 22 -15 23 -21 1 -5 17 -10 35 -10 29 0 32 3 34 30 1 20 0 23 -4
8 -5 -28 -12 -29 -29 -5 -11 14 -13 14 -14 2 0 -9 -3 -11 -8 -5 -4 6 -18 16
-32 22 -23 10 -23 11 16 11 61 0 100 25 135 87 17 30 35 52 40 49 5 -3 9 0 9
5 0 6 -6 11 -12 11 -10 0 -10 2 0 9 29 18 -35 102 -70 93 -6 -1 -32 31 -52 66
-13 23 30 13 71 -17z m-2735 -73 c-7 -7 -12 -8 -12 -2 0 14 12 26 19 19 2 -3
-1 -11 -7 -17z m2746 -8 c7 -11 11 -20 9 -20 -2 0 -12 9 -22 20 -10 11 -14 20
-9 20 5 0 15 -9 22 -20z m-307 -116 c3 -38 4 -70 3 -72 -1 -2 -12 18 -23 43
-21 48 -27 86 -14 99 17 17 28 -6 34 -70z m-2727 10 c9 -24 7 -28 -9 -14 -17
14 -20 30 -6 30 5 0 12 -7 15 -16z m-34 -3 c0 -5 -7 -12 -16 -15 -14 -5 -15
-4 -4 9 14 17 20 19 20 6z m70 -11 c0 -5 -4 -10 -10 -10 -5 0 -10 5 -10 10 0
6 5 10 10 10 6 0 10 -4 10 -10z m1785 -10 c-3 -5 -11 -10 -16 -10 -6 0 -7 5
-4 10 3 6 11 10 16 10 6 0 7 -4 4 -10z m-1735 -4 c0 -3 -4 -8 -10 -11 -5 -3
-10 -1 -10 4 0 6 5 11 10 11 6 0 10 -2 10 -4z m50 -26 c0 -5 -2 -10 -4 -10 -3
0 -8 5 -11 10 -3 6 -1 10 4 10 6 0 11 -4 11 -10z m5076 -156 c-5 -14 -9 -15
-19 -5 -9 9 -9 14 3 21 18 11 24 6 16 -16z m194 -104 c0 -5 -5 -10 -11 -10 -5
0 -7 5 -4 10 3 6 8 10 11 10 2 0 4 -4 4 -10z m-3238 -30 c48 -21 67 -36 116
-93 26 -31 32 -46 32 -85 -1 -85 -53 -163 -132 -196 -49 -21 -131 -20 -171 0
-47 24 -89 55 -83 62 3 2 13 -1 23 -9 16 -13 16 -13 0 11 -9 13 -17 31 -16 40
0 12 2 12 6 1 10 -25 57 -60 102 -76 77 -26 111 -18 163 39 33 36 38 56 6 25
-29 -27 -79 -49 -113 -49 -39 0 -29 17 14 24 46 7 93 44 111 86 7 16 16 27 21
25 4 -3 7 13 6 36 -1 36 -7 46 -47 77 -47 37 -90 82 -90 95 0 10 2 9 52 -13z
m-1435 -56 c-3 -3 -12 -4 -19 -1 -8 3 -5 6 6 6 11 1 17 -2 13 -5z m103 -14
c18 -12 2 -12 -25 0 -13 6 -15 9 -5 9 8 0 22 -4 30 -9z m50 -30 c8 -5 11 -12
7 -16 -4 -4 -15 0 -24 9 -18 18 -8 23 17 7z m310 -105 c-46 -46 -86 -82 -89
-79 -6 6 155 164 167 164 4 0 -31 -38 -78 -85z m687 -2 c-2 -16 -4 -3 -4 27 0
30 2 43 4 28 2 -16 2 -40 0 -55z m-921 41 c18 -14 18 -14 -6 -3 -31 14 -36 19
-24 19 6 0 19 -7 30 -16z m-1366 -119 c-7 -8 -17 -15 -22 -15 -6 0 -5 7 2 15
7 8 17 15 22 15 6 0 5 -7 -2 -15z m2435 -16 c11 -17 2 -18 -19 -3 -17 12 -17
14 -4 14 9 0 20 -5 23 -11z m31 -26 c-10 -10 -19 5 -10 18 6 11 8 11 12 0 2
-7 1 -15 -2 -18z m-806 7 c0 -5 -5 -10 -11 -10 -5 0 -7 5 -4 10 3 6 8 10 11
10 2 0 4 -4 4 -10z m127 -6 c-3 -3 -12 -4 -19 -1 -8 3 -5 6 6 6 11 1 17 -2 13
-5z m-1882 -34 c7 -12 -2 -12 -30 0 -19 8 -19 9 2 9 12 1 25 -3 28 -9z m185
-50 c18 -12 2 -12 -25 0 -13 6 -15 9 -5 9 8 0 22 -4 30 -9z m50 -10 c0 -5 -4
-10 -10 -10 -5 0 -10 5 -10 10 0 6 5 10 10 10 6 0 10 -4 10 -10z m63 -27 c9
-3 17 -9 17 -14 0 -5 16 -15 35 -23 19 -8 35 -20 35 -25 0 -6 6 -11 13 -11 6
0 39 -25 72 -56 33 -31 42 -42 20 -25 -22 17 -60 46 -85 63 -25 18 -46 35 -48
40 -2 4 -8 8 -12 8 -5 0 -31 14 -57 31 -26 17 -39 28 -28 24 11 -4 28 -10 38
-12z m1635 -293 c74 -73 91 -164 48 -249 -19 -36 -111 -81 -168 -81 -45 0
-138 51 -138 76 0 16 36 19 45 5 3 -5 19 -12 35 -16 21 -5 30 -13 30 -26 0
-15 7 -19 35 -19 19 0 35 4 35 9 0 17 -31 41 -53 41 -12 0 -29 5 -37 10 -11 7
0 10 38 10 89 0 142 48 142 127 0 41 -19 76 -57 106 -22 18 -32 57 -14 57 4 0
31 -23 59 -50z m-2518 7 c-16 -13 -26 -42 -12 -33 5 3 18 -1 28 -9 27 -20 39
-18 53 8 11 22 11 22 6 0 -5 -17 1 -25 29 -38 23 -11 46 -14 66 -10 20 4 30 3
30 -5 0 -6 5 -8 10 -5 6 3 10 1 10 -4 0 -6 6 -11 14 -11 8 0 16 -3 18 -7 2 -5
15 -15 30 -23 15 -8 27 -19 27 -24 0 -5 12 -15 28 -21 15 -7 43 -26 62 -44 18
-17 36 -31 40 -31 4 0 17 -18 30 -40 12 -22 27 -38 32 -35 5 4 6 -2 2 -11 -5
-13 -2 -16 9 -11 12 4 14 1 11 -14 -3 -10 0 -19 6 -19 16 0 14 -51 -4 -93 -11
-26 -23 -37 -45 -42 -16 -4 -49 -17 -73 -29 -100 -52 -153 -68 -193 -57 -22 5
-50 12 -64 15 -14 3 -54 27 -87 53 -220 171 -339 247 -435 278 -46 15 -87 30
-91 34 -11 11 194 123 321 176 23 10 42 21 42 25 0 4 11 5 24 3 17 -4 30 2 42
16 10 12 25 21 34 21 13 -1 13 -2 0 -13z m1230 -19 c0 -6 -7 -5 -15 2 -8 7
-15 17 -15 22 0 6 7 5 15 -2 8 -7 15 -17 15 -22z m-1170 12 c0 -5 -5 -10 -11
-10 -5 0 -7 5 -4 10 3 6 8 10 11 10 2 0 4 -4 4 -10z m50 -30 c0 -5 -5 -10 -11
-10 -5 0 -7 5 -4 10 3 6 8 10 11 10 2 0 4 -4 4 -10z m70 0 c0 -5 -2 -10 -4
-10 -3 0 -8 5 -11 10 -3 6 -1 10 4 10 6 0 11 -4 11 -10z m1700 -14 c0 -3 -4
-8 -10 -11 -5 -3 -10 -1 -10 4 0 6 5 11 10 11 6 0 10 -2 10 -4z m314 -34 c-7
-29 -24 -54 -24 -35 0 29 13 72 21 67 5 -3 6 -17 3 -32z m9 -69 c-3 -21 -7
-40 -9 -42 -8 -9 -16 31 -10 54 10 39 25 29 19 -12z m-899 -26 c4 -19 3 -26
-4 -22 -5 3 -10 18 -10 32 0 32 5 28 14 -10z m567 9 c-7 -8 -9 -25 -5 -40 4
-16 2 -26 -5 -26 -6 0 -11 9 -11 21 0 13 -4 18 -12 13 -14 -9 10 26 27 38 16
12 18 9 6 -6z m3258 -50 c46 -24 54 -40 31 -61 -19 -17 -30 -16 -61 7 -21 15
-44 5 -65 -27 -16 -25 -16 -27 3 -53 19 -26 25 -27 106 -27 99 0 118 -11 137
-79 10 -38 10 -49 -5 -80 -23 -49 -69 -86 -107 -86 -34 0 -93 32 -102 55 -7
20 31 40 49 25 7 -6 27 -15 45 -20 25 -7 35 -5 51 11 26 26 25 83 -1 109 -23
23 -29 24 -100 10 -65 -12 -100 5 -126 62 -14 32 -15 44 -6 77 7 21 19 44 27
51 12 10 76 37 93 40 2 0 15 -6 31 -14z m-2869 -10 c0 -3 -4 -8 -10 -11 -5 -3
-10 -1 -10 4 0 6 5 11 10 11 6 0 10 -2 10 -4z m-947 -41 c4 -8 2 -17 -3 -20
-6 -4 -10 3 -10 14 0 25 6 27 13 6z m-1 -107 c2 -40 0 -82 -4 -93 -9 -25 -8
-28 -13 78 -2 48 0 87 5 87 4 0 10 -33 12 -72z m3658 -120 c45 -90 87 -169 92
-175 7 -9 7 -18 -2 -28 -19 -22 -39 -18 -46 10 -9 35 -21 31 -28 -11 -9 -48
-73 -110 -128 -124 -90 -25 -167 11 -218 101 -21 36 -25 57 -25 120 0 66 4 81
28 117 45 68 146 109 199 81 27 -14 33 -5 14 22 -16 24 -7 49 19 49 7 0 50
-73 95 -162z m-3965 142 c3 -5 2 -10 -4 -10 -5 0 -13 5 -16 10 -3 6 -2 10 4
10 5 0 13 -4 16 -10z m845 -30 c0 -27 -4 -40 -14 -40 -9 0 -13 12 -12 40 0 25
5 40 13 40 8 0 13 -14 13 -40z m-15 -104 c0 -30 -3 -57 -7 -61 -3 -3 -6 4 -5
17 1 13 -2 40 -6 61 -6 27 -5 37 5 37 9 0 13 -16 13 -54z m-3135 -76 c0 -5 -4
-10 -10 -10 -5 0 -10 5 -10 10 0 6 5 10 10 10 6 0 10 -4 10 -10z m2598 -30
c-1 -44 -18 -45 -18 -1 0 24 7 41 17 41 1 0 2 -18 1 -40z m546 15 c3 -8 1 -15
-4 -15 -6 0 -10 7 -10 15 0 8 2 15 4 15 2 0 6 -7 10 -15z m2066 5 c-8 -5 -19
-10 -25 -10 -5 0 -3 5 5 10 8 5 20 10 25 10 6 0 3 -5 -5 -10z m-54 -9 c-3 -5
-22 -11 -42 -13 -32 -4 -34 -3 -18 9 20 15 68 18 60 4z m-5226 -45 c0 -3 -4
-8 -10 -11 -5 -3 -10 -1 -10 4 0 6 5 11 10 11 6 0 10 -2 10 -4z m5567 -103
c27 -50 43 -60 43 -24 0 10 13 36 29 58 52 72 155 92 229 46 43 -26 82 -66 99
-97 22 -42 22 -171 0 -213 -39 -73 -143 -122 -197 -93 -29 16 -35 7 -15 -23
16 -24 15 -26 -5 -37 -12 -6 -23 -10 -24 -8 -5 5 -58 101 -74 133 -9 17 -40
73 -71 125 -30 52 -62 109 -71 125 -9 17 -24 43 -35 59 -19 28 -19 29 1 43 17
13 21 11 41 -14 13 -15 35 -51 50 -80z m-1464 -24 c-4 -4 -6 20 -3 54 l5 62 3
-54 c2 -30 0 -58 -5 -62z m962 101 c-3 -5 -14 -10 -23 -10 -15 0 -15 2 -2 10
20 13 33 13 25 0z m-5752 -16 c15 -3 27 -10 27 -15 0 -14 -31 -24 -39 -12 -3
5 -17 17 -31 27 -20 14 -21 17 -5 12 11 -3 32 -8 48 -12z m-48 -14 c3 -5 2
-10 -4 -10 -5 0 -13 5 -16 10 -3 6 -2 10 4 10 5 0 13 -4 16 -10z m3385 3 c0
-5 -8 -17 -17 -28 -14 -18 -15 -18 -9 -2 3 10 6 23 6 28 0 5 5 9 10 9 6 0 10
-3 10 -7z m570 -25 c0 -16 -3 -19 -11 -11 -6 6 -8 16 -5 22 11 17 16 13 16
-11z m2191 -9 c22 -31 22 -32 4 -45 -26 -19 -31 -18 -56 17 -22 31 -22 32 -4
45 26 19 31 18 56 -17z m-6304 13 c7 -4 9 -13 4 -21 -6 -10 -10 -9 -15 4 -4
11 -12 14 -26 10 -11 -4 -20 -2 -20 4 0 13 39 14 57 3z m3140 2 c-3 -3 -12 -4
-19 -1 -8 3 -5 6 6 6 11 1 17 -2 13 -5z m-3411 -39 c-10 -8 -23 -12 -29 -8
-11 7 12 23 33 23 12 -1 11 -4 -4 -15z m202 8 c-10 -2 -26 -2 -35 0 -10 3 -2
5 17 5 19 0 27 -2 18 -5z m3302 -34 c0 -6 -4 -7 -10 -4 -5 3 -10 11 -10 16 0
6 5 7 10 4 6 -3 10 -11 10 -16z m2972 -45 c50 -85 70 -121 126 -227 29 -53 63
-115 77 -137 30 -47 30 -52 6 -67 -16 -10 -21 -7 -37 22 -19 36 -34 31 -34
-11 0 -27 -34 -70 -70 -89 -159 -82 -351 100 -300 286 23 81 131 134 218 105
23 -8 23 -7 8 21 -8 15 -29 48 -45 73 -34 49 -38 66 -18 73 28 12 38 4 69 -49z
m-6542 20 c0 -2 -9 0 -20 6 -11 6 -20 13 -20 16 0 2 9 0 20 -6 11 -6 20 -13
20 -16z m4468 5 c-2 -6 -8 -10 -13 -10 -5 0 -11 4 -13 10 -2 6 4 11 13 11 9 0
15 -5 13 -11z m877 -119 c3 -19 8 -44 11 -55 4 -11 3 -17 0 -14 -14 13 -36
115 -35 159 l1 45 9 -50 c5 -27 12 -66 14 -85z m1373 56 c36 -72 114 -221 143
-274 20 -37 21 -45 9 -52 -28 -18 -37 -10 -73 63 -37 73 -103 196 -137 253
-17 29 -17 33 -2 48 24 24 30 21 60 -38z m-2248 15 c0 -5 -7 -24 -15 -42 -14
-33 -14 -33 -15 -7 0 14 3 33 6 42 7 17 24 22 24 7z m-645 -10 c3 -5 1 -12 -5
-16 -5 -3 -10 1 -10 9 0 18 6 21 15 7z m-5215 -131 c-8 -5 -19 -10 -25 -10 -5
0 -3 5 5 10 8 5 20 10 25 10 6 0 3 -5 -5 -10z m5170 -54 c0 -5 -7 -3 -15 4 -8
7 -15 22 -15 34 1 20 2 20 15 -4 8 -14 14 -29 15 -34z m695 34 c3 -6 -1 -7 -9
-4 -18 7 -21 14 -7 14 6 0 13 -4 16 -10z m3335 -8 c0 -4 -9 -13 -20 -20 -22
-13 -27 -3 -8 16 14 14 28 16 28 4z m-8683 -18 c-3 -3 -12 -4 -19 -1 -8 3 -5
6 6 6 11 1 17 -2 13 -5z m-262 -14 c-3 -5 -11 -10 -16 -10 -6 0 -7 5 -4 10 3
6 11 10 16 10 6 0 7 -4 4 -10z m4889 -6 c3 -8 2 -12 -4 -9 -6 3 -10 10 -10 16
0 14 7 11 14 -7z m746 -31 c0 -13 -3 -13 -15 -3 -8 7 -12 16 -9 21 8 13 24 1
24 -18z m1703 -55 c54 -100 87 -158 130 -232 39 -66 40 -69 22 -82 -26 -20
-31 -18 -45 16 -7 16 -16 27 -21 24 -5 -3 -7 -10 -4 -15 10 -15 -48 -87 -80
-101 -53 -22 -129 -14 -183 18 -116 72 -163 242 -89 323 45 49 134 74 179 50
23 -13 37 -4 20 13 -24 24 -13 40 30 47 4 0 22 -27 41 -61z m-7783 40 c0 -25
-16 -37 -38 -32 l-21 6 22 19 c26 22 37 24 37 7z m6088 -19 c-10 -5 -22 -17
-27 -27 -6 -9 -11 -12 -11 -5 0 15 28 43 43 43 7 0 4 -5 -5 -11z m-848 -9 c0
-5 -5 -10 -11 -10 -5 0 -7 5 -4 10 3 6 8 10 11 10 2 0 4 -4 4 -10z m860 -61
c0 -5 -9 -4 -19 3 -11 7 -17 16 -14 20 5 10 33 -10 33 -23z m-6160 11 c0 -5
-5 -10 -11 -10 -5 0 -7 5 -4 10 3 6 8 10 11 10 2 0 4 -4 4 -10z m-25 -30 c3
-6 -1 -7 -9 -4 -18 7 -21 14 -7 14 6 0 13 -4 16 -10z m-78 -22 c-14 -8 -16
-13 -6 -24 13 -16 1 -18 -21 -4 -13 9 -11 13 10 29 14 11 27 17 30 15 3 -3 -3
-10 -13 -16z m1868 12 c-3 -5 -14 -10 -23 -10 -15 0 -15 2 -2 10 20 13 33 13
25 0z m4415 -43 c0 -5 -4 -5 -10 -2 -5 3 -10 14 -10 23 0 15 2 15 10 2 5 -8
10 -19 10 -23z m344 -12 c-4 -9 -16 -21 -28 -27 -20 -11 -20 -10 -6 8 13 17
31 33 37 34 1 0 0 -7 -3 -15z m-374 -49 c0 -18 -2 -17 -15 8 -19 36 -19 42 0
26 8 -7 15 -22 15 -34z m358 -9 c9 4 13 1 10 -7 -7 -23 -22 -21 -37 2 -9 15
-9 19 -1 11 7 -6 19 -9 28 -6z m-48 -31 c0 -10 -32 -36 -43 -36 -7 1 -1 10 12
20 23 20 31 24 31 16z m-310 -37 c0 -11 -4 -17 -10 -14 -5 3 -10 13 -10 21 0
8 5 14 10 14 6 0 10 -9 10 -21z m13 -49 c-3 -11 -9 -20 -14 -20 -11 0 -11 3
-3 24 9 23 23 20 17 -4z m-293 -444 c0 -2 -8 -10 -17 -17 -16 -13 -17 -12 -4
4 13 16 21 21 21 13z m-30 -50 c0 -3 -4 -8 -10 -11 -5 -3 -10 -1 -10 4 0 6 5
11 10 11 6 0 10 -2 10 -4z m-378 -1568 c-7 -7 -12 -8 -12 -2 0 14 12 26 19 19
2 -3 -1 -11 -7 -17z"/>
<path d="M9245 5620 c3 -5 11 -10 16 -10 6 0 7 5 4 10 -3 6 -11 10 -16 10 -6
0 -7 -4 -4 -10z"/>
<path d="M9884 4176 c-80 -35 -106 -152 -51 -234 67 -103 199 -97 242 10 57
142 -61 280 -191 224z"/>
<path d="M9501 3951 c-13 -3 -37 -23 -54 -43 -69 -86 -33 -205 80 -262 17 -9
38 -14 45 -12 7 2 25 7 39 10 97 21 126 173 50 260 -33 37 -111 61 -160 47z"/>
<path d="M8970 3655 c-7 -8 -16 -13 -20 -10 -5 3 -17 -7 -28 -23 -67 -94 -1
-234 124 -262 92 -21 167 82 136 186 -10 32 -62 89 -99 108 -40 20 -97 21
-113 1z"/>
<path d="M8549 3455 c-29 -16 -59 -70 -59 -107 0 -27 31 -94 58 -124 29 -34
77 -54 127 -54 39 0 52 5 76 31 53 57 47 136 -14 206 -52 60 -130 79 -188 48z"/>
<path d="M10975 4030 c4 -6 11 -8 16 -5 14 9 11 15 -7 15 -8 0 -12 -5 -9 -10z"/>
<path d="M10923 3985 c-3 -9 -3 -18 0 -21 9 -9 27 6 27 22 0 19 -19 18 -27 -1z"/>
<path d="M10984 3979 c-8 -14 18 -31 30 -19 9 9 0 30 -14 30 -5 0 -12 -5 -16
-11z"/>
<path d="M11025 3880 c-3 -5 1 -10 10 -10 9 0 13 5 10 10 -3 6 -8 10 -10 10
-2 0 -7 -4 -10 -10z"/>
<path d="M11080 3870 c0 -5 5 -10 10 -10 6 0 10 5 10 10 0 6 -4 10 -10 10 -5
0 -10 -4 -10 -10z"/>
<path d="M11157 3862 c-3 -4 3 -13 14 -20 10 -7 19 -8 19 -3 0 13 -28 33 -33
23z"/>
<path d="M11192 3778 c-16 -16 -15 -38 2 -38 8 0 23 -3 33 -6 13 -4 14 -3 5 4
-8 5 -12 11 -11 13 2 2 -2 12 -7 22 -8 13 -13 14 -22 5z"/>
<path d="M11122 3771 c4 -13 18 -16 19 -4 0 4 -5 9 -11 12 -7 2 -11 -2 -8 -8z"/>
<path d="M10400 3649 c0 -11 5 -17 10 -14 6 3 10 13 10 21 0 8 -4 14 -10 14
-5 0 -10 -9 -10 -21z"/>
<path d="M10444 3646 c-21 -16 -14 -32 11 -22 9 3 13 11 9 18 -5 8 -2 9 10 5
10 -4 15 -3 11 3 -8 14 -18 13 -41 -4z"/>
<path d="M11240 3636 c0 -9 5 -16 10 -16 6 0 10 4 10 9 0 6 -4 13 -10 16 -5 3
-10 -1 -10 -9z"/>
<path d="M11307 3633 c-12 -11 -8 -23 8 -23 8 0 15 7 15 15 0 16 -12 20 -23 8z"/>
<path d="M10540 3550 c0 -5 5 -10 10 -10 6 0 10 5 10 10 0 6 -4 10 -10 10 -5
0 -10 -4 -10 -10z"/>
<path d="M10410 3515 c7 -8 17 -15 22 -15 6 0 5 7 -2 15 -7 8 -17 15 -22 15
-6 0 -5 -7 2 -15z"/>
<path d="M11355 3521 c-3 -5 -1 -12 5 -16 5 -3 10 1 10 9 0 18 -6 21 -15 7z"/>
<path d="M10375 3499 c-4 -13 -12 -18 -22 -15 -15 6 -47 -17 -138 -98 -38 -34
-39 -37 -22 -50 12 -9 17 -22 13 -33 -5 -17 28 -43 152 -114 29 -17 43 -39 24
-39 -4 0 -29 14 -55 30 -54 34 -66 38 -41 13 16 -17 16 -18 1 -21 -26 -5 -21
-25 14 -58 33 -30 178 -222 241 -318 29 -43 146 -268 152 -289 9 -38 29 -34
123 22 44 26 121 60 170 75 101 31 173 57 173 62 0 2 -9 13 -21 25 l-21 21 7
-21 c4 -12 2 -21 -4 -21 -6 0 -13 11 -17 24 -3 14 -12 27 -20 30 -8 3 -14 16
-14 29 0 35 -35 109 -73 155 -17 22 -40 54 -49 71 -11 20 -24 31 -34 29 -11
-2 -21 8 -28 28 -6 17 -21 42 -33 55 -13 13 -36 43 -53 67 -17 23 -36 42 -44
42 -8 0 -17 11 -20 25 -4 14 -17 30 -29 34 -13 5 -36 27 -51 50 -16 23 -32 41
-36 41 -5 0 -34 25 -65 55 -63 62 -103 91 -112 81 -3 -3 2 -14 11 -25 10 -11
13 -21 7 -25 -5 -3 -20 8 -32 26 -39 56 -47 61 -54 37z"/>
<path d="M10665 3430 c-3 -5 1 -10 9 -10 9 0 16 5 16 10 0 6 -4 10 -9 10 -6 0
-13 -4 -16 -10z"/>
<path d="M10113 3411 c-8 -12 -14 -13 -23 -4 -7 6 -19 9 -27 6 -11 -4 -10 -8
5 -19 15 -11 26 -11 51 -1 33 12 39 22 18 30 -7 3 -18 -2 -24 -12z"/>
<path d="M11455 3411 c-6 -11 9 -23 19 -14 9 9 7 23 -3 23 -6 0 -12 -4 -16 -9z"/>
<path d="M10027 3383 c-10 -10 -8 -45 2 -39 11 7 21 46 12 46 -4 0 -11 -3 -14
-7z"/>
<path d="M10050 3352 c0 -5 7 -15 15 -22 12 -10 19 -10 27 -2 14 14 11 17 -19
26 -13 4 -23 3 -23 -2z"/>
<path d="M10775 3320 c-3 -5 1 -10 9 -10 9 0 16 5 16 10 0 6 -4 10 -9 10 -6 0
-13 -4 -16 -10z"/>
<path d="M11541 3311 c-7 -5 -9 -11 -4 -14 5 -3 15 -2 22 2 7 5 9 11 4 14 -5
3 -15 2 -22 -2z"/>
<path d="M10096 3281 c-4 -7 -5 -15 -2 -18 9 -9 19 4 14 18 -4 11 -6 11 -12 0z"/>
<path d="M10216 3205 c16 -25 34 -33 34 -17 0 10 -33 42 -44 42 -3 0 1 -11 10
-25z"/>
<path d="M11625 3200 c-3 -5 -1 -10 4 -10 6 0 11 5 11 10 0 6 -2 10 -4 10 -3
0 -8 -4 -11 -10z"/>
<path d="M10890 3190 c0 -5 5 -10 10 -10 6 0 10 5 10 10 0 6 -4 10 -10 10 -5
0 -10 -4 -10 -10z"/>
<path d="M10120 3159 c0 -5 5 -7 10 -4 6 3 10 8 10 11 0 2 -4 4 -10 4 -5 0
-10 -5 -10 -11z"/>
<path d="M10242 3100 c2 -30 10 -50 24 -62 20 -16 94 -36 94 -24 0 3 -27 34
-61 69 l-61 62 4 -45z"/>
<path d="M10180 3080 c0 -5 7 -10 16 -10 8 0 12 5 9 10 -3 6 -10 10 -16 10 -5
0 -9 -4 -9 -10z"/>
<path d="M9370 2995 c0 -20 17 -28 23 -11 3 8 -1 17 -9 20 -8 3 -14 -1 -14 -9z"/>
<path d="M9274 2974 c3 -9 6 -18 6 -20 0 -2 6 -4 13 -4 7 0 13 9 13 20 0 13
-7 20 -19 20 -13 0 -17 -5 -13 -16z"/>
<path d="M11780 2975 c0 -9 6 -12 15 -9 8 4 15 10 15 15 0 5 -7 9 -15 9 -8 0
-15 -7 -15 -15z"/>
<path d="M10275 2950 c4 -6 11 -8 16 -5 14 9 11 15 -7 15 -8 0 -12 -5 -9 -10z"/>
<path d="M11070 2949 c0 -5 5 -7 10 -4 6 3 10 8 10 11 0 2 -4 4 -10 4 -5 0
-10 -5 -10 -11z"/>
<path d="M9500 2941 c0 -10 30 -24 37 -17 3 2 -5 9 -16 16 -12 6 -21 7 -21 1z"/>
<path d="M9166 2915 c-20 -31 -21 -46 -1 -19 12 15 16 16 24 5 6 -9 11 -10 15
-2 4 6 2 11 -4 11 -7 0 -10 7 -6 15 9 24 -10 17 -28 -10z"/>
<path d="M9392 2929 c-11 -4 -28 -19 -36 -32 -9 -13 -33 -33 -54 -45 -21 -11
-46 -30 -57 -42 -22 -24 -38 -25 -55 -5 -7 8 -17 15 -23 15 -6 0 3 -15 20 -32
42 -46 103 -129 103 -141 0 -16 41 -97 48 -97 4 0 13 -15 20 -32 31 -76 56
-128 62 -128 3 0 11 -20 18 -44 6 -24 17 -50 24 -57 7 -8 26 -40 43 -71 16
-32 33 -58 37 -58 4 0 8 -6 8 -13 0 -8 14 -33 30 -55 17 -23 30 -45 30 -48 0
-3 9 -17 20 -31 24 -31 26 -59 4 -67 -9 -4 -14 -9 -11 -12 8 -8 170 80 256
140 42 29 111 69 154 89 70 33 97 56 65 57 -14 1 -52 55 -63 89 -3 12 -13 21
-20 21 -8 0 -19 17 -25 38 -5 22 -19 47 -31 58 -12 10 -27 31 -35 46 -24 47
-96 138 -105 133 -4 -3 -10 3 -13 13 -11 34 -246 252 -272 252 -6 0 -19 9 -29
20 -11 12 -25 18 -36 15 -11 -4 -26 2 -37 13 -13 13 -25 16 -40 11z"/>
<path d="M11870 2910 c0 -5 5 -10 11 -10 5 0 7 5 4 10 -3 6 -8 10 -11 10 -2 0
-4 -4 -4 -10z"/>
<path d="M11805 2893 c-18 -14 -18 -15 -2 -9 10 3 23 6 28 6 5 0 9 5 9 10 0
14 -12 12 -35 -7z"/>
<path d="M10344 2824 c3 -8 6 -18 6 -20 0 -3 5 -2 10 1 15 9 12 22 -6 29 -12
5 -15 2 -10 -10z"/>
<path d="M9780 2789 c0 -5 5 -7 10 -4 6 3 10 8 10 11 0 2 -4 4 -10 4 -5 0 -10
-5 -10 -11z"/>
<path d="M10396 2733 c-11 -11 -6 -23 9 -23 8 0 15 4 15 9 0 13 -16 22 -24 14z"/>
<path d="M11260 2720 c0 -5 5 -10 10 -10 6 0 10 5 10 10 0 6 -4 10 -10 10 -5
0 -10 -4 -10 -10z"/>
<path d="M13292 2710 c-13 -11 -22 -24 -20 -30 2 -6 14 3 26 19 26 36 25 37
-6 11z"/>
<path d="M11207 2701 c-4 -15 -1 -18 12 -14 29 11 33 15 20 24 -21 13 -26 11
-32 -10z"/>
<path d="M9225 2659 c-4 -6 -5 -13 -2 -16 7 -7 27 6 27 18 0 12 -17 12 -25 -2z"/>
<path d="M9890 2660 c0 -5 5 -10 10 -10 6 0 10 5 10 10 0 6 -4 10 -10 10 -5 0
-10 -4 -10 -10z"/>
<path d="M10450 2615 c0 -16 16 -20 24 -6 3 5 -1 11 -9 15 -9 3 -15 0 -15 -9z"/>
<path d="M8566 2542 c-3 -6 -1 -14 5 -17 15 -10 25 3 12 16 -7 7 -13 7 -17 1z"/>
<path d="M9980 2520 c0 -5 5 -10 10 -10 6 0 10 5 10 10 0 6 -4 10 -10 10 -5 0
-10 -4 -10 -10z"/>
<path d="M10500 2521 c0 -5 5 -13 10 -16 6 -3 10 -2 10 4 0 5 -4 13 -10 16 -5
3 -10 2 -10 -4z"/>
<path d="M9292 2489 c2 -6 7 -10 11 -10 4 1 15 1 25 1 14 0 15 2 2 10 -20 13
-43 13 -38 -1z"/>
<path d="M10563 2443 c-12 -2 -24 -11 -27 -18 -4 -12 2 -12 37 2 23 9 44 18
46 20 5 4 -26 2 -56 -4z"/>
<path d="M8670 2390 c0 -5 9 -10 21 -10 11 0 17 5 14 10 -3 6 -13 10 -21 10
-8 0 -14 -4 -14 -10z"/>
<path d="M10080 2390 c0 -5 5 -10 10 -10 6 0 10 5 10 10 0 6 -4 10 -10 10 -5
0 -10 -4 -10 -10z"/>
<path d="M9352 2319 c2 -7 10 -15 17 -17 8 -3 12 1 9 9 -2 7 -10 15 -17 17 -8
3 -12 -1 -9 -9z"/>
<path d="M10160 2261 c0 -12 3 -21 8 -21 12 1 47 30 35 30 -6 0 -18 3 -27 6
-12 4 -16 0 -16 -15z"/>
<path d="M8780 2230 c0 -5 4 -10 9 -10 6 0 13 5 16 10 3 6 -1 10 -9 10 -9 0
-16 -4 -16 -10z"/>
<path d="M9400 2195 c0 -8 7 -15 15 -15 8 0 15 4 15 9 0 5 -7 11 -15 15 -9 3
-15 0 -15 -9z"/>
<path d="M8890 2070 c0 -5 5 -10 10 -10 6 0 10 5 10 10 0 6 -4 10 -10 10 -5 0
-10 -4 -10 -10z"/>
<path d="M9480 2040 c0 -5 5 -10 10 -10 6 0 10 5 10 10 0 6 -4 10 -10 10 -5 0
-10 -4 -10 -10z"/>
<path d="M9000 1920 c0 -5 5 -10 10 -10 6 0 10 5 10 10 0 6 -4 10 -10 10 -5 0
-10 -4 -10 -10z"/>
<path d="M9545 1910 c-3 -5 -1 -10 4 -10 6 0 11 5 11 10 0 6 -2 10 -4 10 -3 0
-8 -4 -11 -10z"/>
<path d="M8858 663 c7 -3 16 -2 19 1 4 3 -2 6 -13 5 -11 0 -14 -3 -6 -6z"/>
<path d="M8428 543 c7 -3 16 -2 19 1 4 3 -2 6 -13 5 -11 0 -14 -3 -6 -6z"/>
</g>
</svg>
